<?xml version="1.0" encoding="UTF-8" standalone="no"?>
<svg
   ffdec:objectType="frame"
   height="58.45px"
   width="62.6px"
   version="1.1"
   id="svg9"
   sodipodi:docname="4.svg"
   inkscape:version="1.3.2 (091e20e, 2023-11-25, custom)"
   xmlns:inkscape="http://www.inkscape.org/namespaces/inkscape"
   xmlns:sodipodi="http://sodipodi.sourceforge.net/DTD/sodipodi-0.dtd"
   xmlns:xlink="http://www.w3.org/1999/xlink"
   xmlns="http://www.w3.org/2000/svg"
   xmlns:svg="http://www.w3.org/2000/svg"
   xmlns:ffdec="https://www.free-decompiler.com/flash">
  <sodipodi:namedview
     id="namedview9"
     pagecolor="#ffffff"
     bordercolor="#000000"
     borderopacity="0.25"
     inkscape:showpageshadow="2"
     inkscape:pageopacity="0.0"
     inkscape:pagecheckerboard="0"
     inkscape:deskcolor="#d1d1d1"
     inkscape:zoom="20.068434"
     inkscape:cx="31.292925"
     inkscape:cy="29.225"
     inkscape:window-width="2560"
     inkscape:window-height="1369"
     inkscape:window-x="-8"
     inkscape:window-y="-8"
     inkscape:window-maximized="1"
     inkscape:current-layer="g2" />
  <g
     transform="matrix(1.0, 0.0, 0.0, 1.0, 30.95, 57.0)"
     id="g2">
    <use
       ffdec:characterId="756"
       height="52.95"
       transform="matrix(1.0, 0.0, 0.0, 1.0, -12.85, -53.95)"
       width="42.95"
       xlink:href="#shape0"
       id="use1"
       style="fill:#e4e7ef;fill-opacity:1" />
    <use
       ffdec:characterId="294"
       height="98.75"
       transform="matrix(-0.173, 0.0338, 0.0619, 0.3182, 20.7005, -49.888)"
       width="112.4"
       xlink:href="#sprite0"
       id="use2" />
    <path
       style="fill:#e4e7ef;fill-opacity:1;stroke-width:16.6299;stroke-linecap:round"
       d="m 22.865857,-38.363768 c -0.165492,0.370445 -0.421709,0.724798 -0.453111,1.133291 -0.02273,0.295741 0.0105,0.590625 -0.01803,0.888043 -0.03077,0.320844 0.106615,0.622682 0.202257,0.921309 0.128859,0.402336 0.276564,0.798685 0.524755,1.152582 0.298963,0.426295 0.494813,0.913326 0.731236,1.377 0.192781,0.378085 0.512883,0.669986 0.735404,1.030089 0.145868,0.236058 0.461258,0.333545 0.562144,0.582218 0.106329,0.262093 0.333473,0.439848 0.543557,0.613813 0.209593,0.173559 0.46137,0.340923 0.531136,0.620512 0.05039,0.201956 0.276048,0.231076 0.470495,0.225302 0.220872,-0.0066 0.429036,-0.114394 0.551017,-0.30341 0.382338,-0.59245 0.04029,-1.753151 0.701747,-1.962232 0.226224,-0.07151 0.224465,-0.33016 0.244982,-0.526195 0.05475,-0.523149 -0.05818,-1.042717 -0.133841,-1.557702 -0.06781,-0.461593 -0.24727,-0.892901 -0.425912,-1.327932 -0.09316,-0.226873 -0.217028,-0.427963 -0.283184,-0.674191 -0.06689,-0.248948 -0.222918,-0.444473 -0.41435,-0.616573 -0.405736,-0.364761 -0.810077,-0.736283 -1.259541,-1.045578 -0.590256,-0.40618 -1.264893,-0.682405 -1.953564,-0.865539 -0.214951,-0.05716 -0.434322,-0.110183 -0.657882,-0.113273"
       id="path10"
       inkscape:path-effect="#path-effect10" />
  </g>
  <defs
     id="defs9">
    <inkscape:path-effect
       effect="simplify"
       id="path-effect10"
       is_visible="true"
       lpeversion="1.3"
       threshold="11.4754"
       steps="1"
       smooth_angles="360"
       helper_size="0"
       simplify_individual_paths="false"
       simplify_just_coalesce="false" />
    <g
       id="shape0"
       transform="matrix(1.0, 0.0, 0.0, 1.0, 12.85, 53.95)">
      <path
         d="M26.65 -35.35 L27.3 -34.75 27.45 -34.5 27.55 -33.4 Q27.55 -32.1 27.2 -31.25 26.9 -30.55 26.5 -30.4 L26.35 -30.4 Q25.8 -30.4 25.45 -31.25 25.1 -32.1 25.1 -33.4 L25.3 -35.0 23.6 -36.35 23.45 -36.55 23.5 -36.8 23.6 -36.95 23.85 -36.9 26.65 -35.35"
         fill="#000000"
         fill-rule="evenodd"
         stroke="none"
         id="path2" />
      <path
         d="M26.65 -35.35 L23.85 -36.9 23.6 -36.95 23.5 -36.8 23.45 -36.55 23.6 -36.35 25.3 -35.0 25.1 -33.4 Q25.1 -32.1 25.45 -31.25 25.8 -30.4 26.35 -30.4 L26.5 -30.4 Q26.9 -30.55 27.2 -31.25 27.55 -32.1 27.55 -33.4 L27.45 -34.5 27.3 -34.75 26.65 -35.35 M28.75 -33.5 Q30.05 -24.1 26.65 -17.7 23.35 -11.45 17.65 -10.55 12.0 -9.75 7.65 -14.95 L5.35 -18.35 4.85 -19.3 4.85 -19.35 Q2.6 -24.05 1.5 -30.95 1.05 -33.85 1.0 -36.35 L1.0 -37.95 1.0 -38.05 Q1.1 -43.55 3.2 -46.95 6.55 -52.2 12.25 -52.9 17.95 -53.55 22.65 -48.3 27.5 -42.95 28.75 -33.5"
         fill="#e4e7ef"
         fill-rule="evenodd"
         stroke="none"
         id="path3" />
      <path
         d="M28.75 -33.5 Q27.5 -42.95 22.65 -48.3 17.95 -53.55 12.25 -52.9 6.55 -52.2 3.2 -46.95 1.1 -43.55 1.0 -38.05 L1.0 -37.95 1.0 -36.35 Q1.05 -33.85 1.5 -30.95 2.6 -24.05 4.85 -19.35 L4.85 -19.3 5.35 -18.35 7.65 -14.95 Q12.0 -9.75 17.65 -10.55 23.35 -11.45 26.65 -17.7 30.05 -24.1 28.75 -33.5 M0.0 -38.55 Q0.25 -44.0 2.4 -47.45 6.0 -53.15 12.1 -53.85 18.3 -54.6 23.35 -48.95 28.4 -43.4 29.7 -33.65 31.05 -23.85 27.55 -17.25 23.95 -10.5 17.8 -9.6 11.65 -8.65 6.9 -14.35 5.8 -15.65 4.8 -17.3 L4.5 -17.85 4.5 -17.9 4.45 -18.0 4.2 -18.45 4.0 -18.85 4.0 -18.9 Q1.65 -23.7 0.55 -30.8 0.15 -33.35 0.05 -35.55 L0.0 -36.35 0.0 -37.55 0.0 -38.0 0.0 -38.05 0.0 -38.55"
         fill="#8b95ba"
         fill-rule="evenodd"
         stroke="none"
         id="path4" />
      <path
         d="M4.8 -17.3 L4.0 -11.75 Q10.4 -10.0 11.4 -6.95 12.2 -4.75 10.4 -2.75 9.55 -1.7 6.75 -1.35 L-0.1 -1.0 -8.05 -1.4 Q-11.25 -2.1 -11.55 -3.85 -12.15 -7.1 -10.3 -8.75 -8.55 -10.35 -4.65 -11.35 -4.3 -13.55 -4.2 -16.35 -4.05 -19.05 -4.2 -20.05 -4.35 -20.35 -6.1 -20.65 -9.0 -21.2 -10.4 -22.4 -12.55 -24.1 -12.85 -29.15 -13.1 -34.35 -10.8 -36.25 -8.8 -37.95 -4.2 -38.45 L0.0 -38.55 0.0 -38.05 0.0 -38.0 0.0 -37.55 -4.1 -37.5 Q-8.35 -37.0 -10.15 -35.5 -12.1 -33.8 -11.85 -29.2 -11.6 -24.7 -9.8 -23.15 -8.5 -22.15 -5.9 -21.6 -3.2 -21.1 -3.2 -20.2 L-3.2 -16.3 Q-3.35 -13.25 -3.75 -10.85 L-3.75 -10.55 -4.1 -10.5 Q-7.95 -9.5 -9.65 -8.0 -11.05 -6.7 -10.55 -4.05 -10.25 -2.85 -7.85 -2.35 L-0.1 -1.95 6.6 -2.3 Q8.95 -2.65 9.65 -3.4 11.05 -4.95 10.5 -6.6 L10.45 -6.6 Q9.45 -9.3 3.35 -10.95 L2.9 -11.05 4.0 -18.4 4.2 -18.45 4.45 -18.0 4.5 -17.9 4.5 -17.85 4.8 -17.3"
         fill="#1b2965"
         fill-rule="evenodd"
         stroke="none"
         id="path5" />
      <path
         d="M0.05 -35.55 Q0.15 -33.35 0.55 -30.8 1.65 -23.7 4.0 -18.9 L4.0 -18.85 3.6 -18.55 2.7 -12.85 -3.15 -9.6 -2.55 -19.6 Q-2.6 -23.0 -6.9 -23.65 -11.2 -24.35 -11.15 -27.3 -6.4 -26.2 -2.2 -26.05 -2.1 -31.7 0.05 -35.55 M-8.7 -8.25 L-6.8 -9.25 Q-8.25 -7.9 -7.2 -7.0 -6.2 -6.2 -3.45 -5.95 -2.55 -5.9 -2.45 -4.5 -2.35 -3.15 -2.8 -2.7 L-5.1 -2.55 -8.35 -3.1 Q-9.6 -3.4 -10.05 -4.8 -10.45 -6.2 -9.75 -7.2 L-8.7 -8.25"
         fill="#143da3"
         fill-rule="evenodd"
         stroke="none"
         id="path6" />
      <path
         d="M0.0 -37.55 L0.0 -36.35 0.05 -35.55 Q-2.1 -31.7 -2.2 -26.05 -6.4 -26.2 -11.15 -27.3 -11.2 -24.35 -6.9 -23.65 -2.6 -23.0 -2.55 -19.6 L-3.15 -9.6 2.7 -12.85 3.6 -18.55 4.0 -18.85 4.2 -18.45 4.0 -18.4 2.9 -11.05 3.35 -10.95 Q9.45 -9.3 10.45 -6.6 L10.5 -6.6 Q11.05 -4.95 9.65 -3.4 8.95 -2.65 6.6 -2.3 L-0.1 -1.95 -7.85 -2.35 Q-10.25 -2.85 -10.55 -4.05 -11.05 -6.7 -9.65 -8.0 -7.95 -9.5 -4.1 -10.5 L-3.75 -10.55 -3.75 -10.85 Q-3.35 -13.25 -3.2 -16.3 L-3.2 -20.2 Q-3.2 -21.1 -5.9 -21.6 -8.5 -22.15 -9.8 -23.15 -11.6 -24.7 -11.85 -29.2 -12.1 -33.8 -10.15 -35.5 -8.35 -37.0 -4.1 -37.5 L0.0 -37.55 M-8.7 -8.25 L-9.75 -7.2 Q-10.45 -6.2 -10.05 -4.8 -9.6 -3.4 -8.35 -3.1 L-5.1 -2.55 -2.8 -2.7 Q-2.35 -3.15 -2.45 -4.5 -2.55 -5.9 -3.45 -5.95 -6.2 -6.2 -7.2 -7.0 -8.25 -7.9 -6.8 -9.25 L-8.7 -8.25"
         fill="#285ad0"
         fill-rule="evenodd"
         stroke="none"
         id="path7" />
    </g>
    <g
       id="sprite0"
       transform="matrix(1.0, 0.0, 0.0, 1.0, 58.5, 52.05)">
      <use
         ffdec:characterId="293"
         height="98.75"
         transform="matrix(1.0, 0.0, 0.0, 1.0, -58.5, -52.05)"
         width="112.4"
         xlink:href="#shape1"
         id="use7" />
    </g>
    <g
       id="shape1"
       transform="matrix(1.0, 0.0, 0.0, 1.0, 58.5, 52.05)">
      <path
         d="M28.85 -33.75 Q31.1 -24.8 24.7 -14.0 20.0 -6.25 16.15 -3.65 L16.2 -3.45 Q23.85 -4.9 37.65 4.75 51.45 14.4 53.55 22.7 55.35 30.1 47.3 38.3 38.9 46.7 28.4 46.7 20.1 46.7 11.75 34.8 L1.85 18.0 -9.95 27.9 Q-16.85 33.3 -21.4 35.1 -24.2 36.25 -31.0 39.9 -37.4 43.05 -42.0 43.05 -54.2 43.05 -58.05 27.6 -60.05 19.55 -52.7 14.1 -47.85 10.45 -32.75 4.75 -30.75 4.0 -17.7 -2.25 -15.8 -3.15 -16.15 -6.9 L-16.25 -8.75 -16.25 -9.8 -21.75 -30.15 Q-24.8 -42.45 -21.1 -46.8 -16.6 -52.05 0.9 -52.05 14.1 -52.05 20.65 -47.5 26.45 -43.35 28.85 -33.75"
         fill="#d2d6ea"
         fill-rule="evenodd"
         stroke="none"
         id="path8" />
    </g>
    <g
       id="sprite1"
       transform="matrix(1.0, 0.0, 0.0, 1.0, 11.6, 4.2)">
      <use
         ffdec:characterId="635"
         height="6.65"
         transform="matrix(-0.4003, 0.0, 0.0, 0.4003, 10.7084, 0.0091)"
         width="54.9"
         xlink:href="#sprite2"
         id="use8" />
    </g>
    <g
       id="sprite2"
       transform="matrix(1.0, 0.0, 0.0, 1.0, 28.25, 3.1)">
      <use
         ffdec:characterId="634"
         height="6.65"
         transform="matrix(1.0, 0.0, 0.0, 1.0, -28.25, -3.1)"
         width="54.9"
         xlink:href="#shape2"
         id="use9" />
    </g>
    <g
       id="shape2"
       transform="matrix(1.0, 0.0, 0.0, 1.0, 28.25, 3.1)">
      <path
         d="M-26.75 2.05 Q-2.6 -1.15 25.15 -1.6"
         fill="none"
         stroke="#000000"
         stroke-linecap="round"
         stroke-linejoin="round"
         stroke-width="3.0"
         id="path9" />
    </g>
  </defs>
</svg>
