<?xml version="1.0" encoding="UTF-8" standalone="no"?>
<svg
   ffdec:objectType="shape"
   height="72.5px"
   width="72.4px"
   version="1.1"
   id="svg3"
   sodipodi:docname="772.svg"
   inkscape:version="1.3.2 (091e20e, 2023-11-25, custom)"
   xmlns:inkscape="http://www.inkscape.org/namespaces/inkscape"
   xmlns:sodipodi="http://sodipodi.sourceforge.net/DTD/sodipodi-0.dtd"
   xmlns="http://www.w3.org/2000/svg"
   xmlns:svg="http://www.w3.org/2000/svg"
   xmlns:ffdec="https://www.free-decompiler.com/flash">
  <defs
     id="defs3" />
  <sodipodi:namedview
     id="namedview3"
     pagecolor="#ffffff"
     bordercolor="#000000"
     borderopacity="0.25"
     inkscape:showpageshadow="2"
     inkscape:pageopacity="0.0"
     inkscape:pagecheckerboard="0"
     inkscape:deskcolor="#d1d1d1"
     inkscape:zoom="16.17931"
     inkscape:cx="36.219096"
     inkscape:cy="36.25"
     inkscape:window-width="2560"
     inkscape:window-height="1369"
     inkscape:window-x="-8"
     inkscape:window-y="-8"
     inkscape:window-maximized="1"
     inkscape:current-layer="svg3" />
  <g
     transform="matrix(-1,0,0,1,37.317744,78.7)"
     id="g3">
    <path
       d="m 14.7,-75.85 3.55,1.7 q 7.4,3.8 12.2,9.25 l 2.8,3.65 q 3.5,5.2 4,15.15 0.45,9.45 -2,16.65 -2.25,6.5 -10.6,13.9 -3.4,3 -6.8,5.25 -3.4,2.2 -5.5,2.9 -6,1.95 -15.2,0.75 -8.1,-1.05 -12.25,-3.35 -5.8,-3.15 -11.65,-9.25 l -2.75,-3 Q -32,-25.1 -33,-27 q -2.05,-4 -2.1,-13.6 -0.05,-8.25 1.1,-13.05 3.1,-12.85 15,-18.6 l 7.65,-3.6 1.25,-0.6 q 5.35,-2.05 10.9,-2.25 6.6,-0.25 13.9,2.85 m 15.45,12.25 -0.5,-0.6 q -4.7,-5.35 -11.9,-9.05 -3.05,-1.6 -5.95,-2.6 -5.7,-1.95 -10.95,-1.8 -4.85,0.2 -9.45,1.8 l -1.1,0.4 -8.8,4.15 q -11.5,5.55 -14.5,17.9 -1.1,4.7 -1.05,12.8 0.05,9.25 2,13.1 0.95,1.85 3.3,4.55 l 0.75,0.85 2.05,2.15 q 5.7,5.9 11.35,9 4.05,2.25 11.9,3.25 8.9,1.15 14.7,-0.7 2.05,-0.7 5.25,-2.8 3.4,-2.2 6.7,-5.15 8.1,-7.2 10.3,-13.45 2.4,-7 1.95,-16.25 -0.5,-9.6 -3.8,-14.65 l -2.25,-2.9"
       fill="#9da5c4"
       fill-rule="evenodd"
       stroke="none"
       id="path1" />
    <path
       d="m -28,-22.1 -0.75,-0.85 q -2.35,-2.7 -3.3,-4.55 -1.95,-3.85 -2,-13.1 -0.05,-8.1 1.05,-12.8 3,-12.35 14.5,-17.9 l 8.8,-4.15 1.1,-0.4 q 4.6,-1.6 9.45,-1.8 5.25,-0.15 10.95,1.8 2.9,1 5.95,2.6 7.2,3.7 11.9,9.05 l 0.5,0.6 0.4,6.5 q 0.2,10.4 -2.45,15.45 0,-7.85 -2.95,-9.9 1.25,4.8 -1,12.45 -1.3,4.35 -2.8,6.7 -1.35,2.15 -3.25,3.3 -1.35,0.8 -4.25,1.75 -3.8,1.25 -5.65,2.1 l -6.8,3.35 q -3.7,1.85 -6.5,2.2 -3.85,0.55 -8.55,-0.9 -5.3,-1.6 -12.8,-6 1.45,2.95 4.85,5.35 3,2.1 6.7,3.25 l -6.8,-1.85 Q -25.25,-21 -28,-22.1"
       fill="#ebebeb"
       fill-rule="evenodd"
       stroke="none"
       id="path2" />
    <path
       d="m 30.15,-63.6 2.25,2.9 q 3.3,5.05 3.8,14.65 0.45,9.25 -1.95,16.25 -2.2,6.25 -10.3,13.45 -3.3,2.95 -6.7,5.15 -3.2,2.1 -5.25,2.8 -5.8,1.85 -14.7,0.7 -7.85,-1 -11.9,-3.25 -5.65,-3.1 -11.35,-9 L -28,-22.1 q 2.75,1.1 6.3,2.25 l 6.8,1.85 q -3.7,-1.15 -6.7,-3.25 -3.4,-2.4 -4.85,-5.35 7.5,4.4 12.8,6 4.7,1.45 8.55,0.9 2.8,-0.35 6.5,-2.2 l 6.8,-3.35 q 1.85,-0.85 5.65,-2.1 2.9,-0.95 4.25,-1.75 1.9,-1.15 3.25,-3.3 1.5,-2.35 2.8,-6.7 2.25,-7.65 1,-12.45 2.95,2.05 2.95,9.9 2.65,-5.05 2.45,-15.45 l -0.4,-6.5"
       fill="#d8d8e3"
       fill-rule="evenodd"
       stroke="none"
       id="path3" />
  </g>
</svg>
