<?xml version="1.0" encoding="UTF-8" standalone="no"?>
<svg
   ffdec:objectType="frame"
   height="88.3px"
   width="70.4px"
   version="1.1"
   id="svg13"
   sodipodi:docname="12.svg"
   inkscape:version="1.3.2 (091e20e, 2023-11-25, custom)"
   xmlns:inkscape="http://www.inkscape.org/namespaces/inkscape"
   xmlns:sodipodi="http://sodipodi.sourceforge.net/DTD/sodipodi-0.dtd"
   xmlns:xlink="http://www.w3.org/1999/xlink"
   xmlns="http://www.w3.org/2000/svg"
   xmlns:svg="http://www.w3.org/2000/svg"
   xmlns:ffdec="https://www.free-decompiler.com/flash">
  <sodipodi:namedview
     id="namedview13"
     pagecolor="#ffffff"
     bordercolor="#000000"
     borderopacity="0.25"
     inkscape:showpageshadow="2"
     inkscape:pageopacity="0.0"
     inkscape:pagecheckerboard="0"
     inkscape:deskcolor="#d1d1d1"
     inkscape:zoom="13.284258"
     inkscape:cx="35.229669"
     inkscape:cy="44.150002"
     inkscape:window-width="2560"
     inkscape:window-height="1369"
     inkscape:window-x="-8"
     inkscape:window-y="-8"
     inkscape:window-maximized="1"
     inkscape:current-layer="g3" />
  <g
     transform="matrix(1.0, 0.0, 0.0, 1.0, 34.4, 87.6)"
     id="g3">
    <use
       ffdec:characterId="786"
       height="115.35"
       transform="matrix(-0.4035, 0.0, 0.0, 0.4016, 0.7887, -46.2989)"
       width="4.8"
       xlink:href="#sprite0"
       id="use1" />
    <use
       ffdec:characterId="788"
       height="192.0"
       transform="matrix(-0.3145, 0.0, 0.0, 0.3129, 30.9867, -83.8412)"
       width="197.55"
       xlink:href="#sprite1"
       id="use2" />
  </g>
  <defs
     id="defs13">
    <g
       id="sprite0"
       transform="matrix(1.0, 0.0, 0.0, 1.0, 2.45, 37.6)">
      <use
         ffdec:characterId="785"
         height="115.35"
         transform="matrix(1.0, 0.0, 0.0, 1.0, -2.45, -37.6)"
         width="4.8"
         xlink:href="#shape0"
         id="use4" />
    </g>
    <g
       id="shape0"
       transform="matrix(1.0, 0.0, 0.0, 1.0, 2.45, 37.6)">
      <path
         d="M2.05 64.35 Q1.8 79.3 -0.45 77.55 -2.7 75.8 -2.4 49.8 L-2.05 1.05 Q-2.05 -21.65 -1.1 -36.55 2.45 -44.15 2.35 2.65 L2.05 64.35"
         fill="#000000"
         fill-rule="evenodd"
         stroke="none"
         id="path4" />
    </g>
    <g
       id="sprite1"
       transform="matrix(1.0, 0.0, 0.0, 1.0, 98.85, 100.15)">
      <use
         ffdec:characterId="787"
         height="192.0"
         transform="matrix(1.0, 0.0, 0.0, 1.0, -98.85, -100.15)"
         width="197.55"
         xlink:href="#shape1"
         id="use5" />
    </g>
    <g
       id="shape1"
       transform="matrix(1.0, 0.0, 0.0, 1.0, 98.85, 100.15)">
      <path
         d="M-93.15 3.25 Q-101.1 -8.5 -94.05 -30.15 -81.2 -69.65 -46.75 -52.45 -41.7 -49.9 -36.35 -46.05 -31.7 -42.75 -28.4 -38.6 -31.45 -43.1 -33.25 -48.65 -35.25 -55.05 -36.1 -60.7 -41.8 -98.65 0.15 -98.65 18.05 -98.65 27.2 -91.55 31.65 -67.4 20.65 -50.15 7.85 -30.1 -21.0 -30.75 -22.0 -30.8 -22.95 -31.9 L-24.45 -33.85 -26.8 -36.5 -28.4 -38.6 Q-29.0 -8.65 -47.3 3.45 -65.8 15.7 -93.15 3.25 M28.15 -38.3 Q31.4 -42.6 36.15 -46.0 41.55 -49.9 46.7 -52.5 73.6 -65.95 87.4 -44.3 91.8 -15.55 80.85 -1.95 69.65 11.9 39.85 13.4 L33.95 9.8 Q29.15 6.05 25.9 1.15 23.55 -2.5 22.25 -6.5 20.9 -10.7 20.7 -14.9 20.4 -20.85 22.15 -26.45 23.2 -30.05 24.75 -33.05 25.7 -34.95 26.9 -36.65 L28.15 -38.3 M49.0 16.4 Q52.15 17.95 55.2 20.15 59.2 23.1 62.5 26.15 66.8 36.7 64.85 48.15 63.0 58.75 56.3 67.95 49.75 76.95 40.4 82.15 30.7 87.55 20.65 87.25 12.45 82.45 6.25 70.5 3.6 65.4 1.55 59.15 0.4 55.75 -0.1 52.5 0.7 47.15 -0.1 42.0 L-0.15 41.5 Q0.35 38.45 1.45 35.3 3.45 29.6 7.15 25.0 9.85 21.65 13.3 19.15 16.85 16.6 20.8 15.1 26.35 12.95 32.25 12.9 L39.35 13.35 39.85 13.4 Q44.55 14.25 49.0 16.4 M-69.7 69.35 Q-85.85 49.65 -64.7 28.15 -60.7 24.05 -55.35 20.15 -52.25 17.85 -48.95 16.3 -44.35 15.4 -40.25 13.35 L-39.5 13.2 -32.7 12.7 Q-26.65 12.85 -21.15 14.95 -17.1 16.5 -13.65 19.0 -10.15 21.6 -7.45 24.9 L-6.1 26.25 Q-5.35 27.1 -5.35 27.85 -5.75 58.55 -18.9 71.05 -35.5 86.75 -69.7 69.35"
         fill="#ff99ff"
         fill-rule="evenodd"
         stroke="none"
         id="path5" />
      <path
         d="M-93.15 3.25 Q-65.8 15.7 -47.3 3.45 -29.0 -8.65 -28.4 -38.6 L-26.8 -36.5 -24.8 -33.15 Q-23.3 -30.2 -22.25 -26.85 -20.55 -21.0 -20.8 -15.15 -21.05 -10.85 -22.3 -6.8 -23.7 -2.65 -26.0 0.9 -29.3 5.9 -34.05 9.45 -37.0 11.7 -40.0 13.25 L-40.25 13.35 Q-44.35 15.4 -48.95 16.3 L-56.8 17.0 -69.15 16.05 Q-86.45 13.15 -93.15 3.25 M-21.0 -30.75 Q7.85 -30.1 20.65 -50.15 31.65 -67.4 27.2 -91.55 39.2 -82.25 35.95 -60.6 35.1 -55.0 33.05 -48.65 31.25 -42.95 28.15 -38.3 L26.9 -36.65 24.35 -33.7 Q22.0 -31.4 19.15 -29.3 14.1 -25.9 8.5 -24.35 4.3 -23.3 0.05 -23.25 -4.35 -23.3 -8.45 -24.35 -14.2 -25.9 -19.0 -29.3 L-21.0 -30.75 M87.4 -44.3 Q91.15 -38.35 93.95 -29.75 106.8 9.7 68.85 16.1 L56.65 17.05 49.0 16.4 Q44.55 14.25 39.85 13.4 69.65 11.9 80.85 -1.95 91.8 -15.55 87.4 -44.3 M62.5 26.15 L64.6 28.2 Q91.5 55.6 57.6 80.25 50.15 85.6 43.5 88.15 31.75 92.6 22.4 88.15 L20.65 87.25 Q30.7 87.55 40.4 82.15 49.75 76.95 56.3 67.95 63.0 58.75 64.85 48.15 66.8 36.7 62.5 26.15 M-0.1 52.5 Q-0.6 55.8 -1.7 59.15 -3.8 65.45 -6.45 70.6 -13.3 83.75 -22.6 88.15 -31.85 92.5 -43.5 88.15 -50.35 85.6 -58.05 80.0 -65.3 74.75 -69.7 69.35 -35.5 86.75 -18.9 71.05 -5.75 58.55 -5.35 27.85 -3.15 31.25 -1.8 35.1 -0.65 38.4 -0.15 41.5 L-0.1 42.0 Q0.7 47.15 -0.1 52.5"
         fill="#f487ff"
         fill-rule="evenodd"
         stroke="none"
         id="path6" />
      <path
         d="M-28.4 -38.6 L-26.8 -36.5 -24.45 -33.85 -22.95 -31.9 Q-22.0 -30.8 -21.0 -30.75 L-19.0 -29.3 Q-14.2 -25.9 -8.45 -24.35 -4.35 -23.3 0.05 -23.25 4.3 -23.3 8.5 -24.35 14.1 -25.9 19.15 -29.3 22.0 -31.4 24.35 -33.7 L26.9 -36.65 28.15 -38.3 M26.9 -36.65 Q25.7 -34.95 24.75 -33.05 23.2 -30.05 22.15 -26.45 20.4 -20.85 20.7 -14.9 20.9 -10.7 22.25 -6.5 23.55 -2.5 25.9 1.15 29.15 6.05 33.95 9.8 L39.85 13.4 39.35 13.35 32.25 12.9 Q26.35 12.95 20.8 15.1 16.85 16.6 13.3 19.15 9.85 21.65 7.15 25.0 3.45 29.6 1.45 35.3 0.35 38.45 -0.15 41.5 L-0.1 42.0 Q0.7 47.15 -0.1 52.5 M49.0 16.4 Q44.55 14.25 39.85 13.4 M-40.25 13.35 L-40.0 13.25 Q-37.0 11.7 -34.05 9.45 -29.3 5.9 -26.0 0.9 -23.7 -2.65 -22.3 -6.8 -21.05 -10.85 -20.8 -15.15 -20.55 -21.0 -22.25 -26.85 -23.3 -30.2 -24.8 -33.15 L-26.8 -36.5 M-40.25 13.35 L-39.5 13.2 -32.7 12.7 Q-26.65 12.85 -21.15 14.95 -17.1 16.5 -13.65 19.0 -10.15 21.6 -7.45 24.9 L-6.1 26.25 Q-5.35 27.1 -5.35 27.85 -3.15 31.25 -1.8 35.1 -0.65 38.4 -0.15 41.5 M-48.95 16.3 Q-44.35 15.4 -40.25 13.35"
         fill="none"
         stroke="#f276f5"
         stroke-linecap="butt"
         stroke-linejoin="miter-clip"
         stroke-miterlimit="12.0"
         stroke-width="3.0"
         id="path7" />
      <path
         d="M27.2 -91.55 Q18.05 -98.65 0.15 -98.65 -41.8 -98.65 -36.1 -60.7 -35.25 -55.05 -33.25 -48.65 -31.45 -43.1 -28.4 -38.6 -31.7 -42.75 -36.35 -46.05 -41.7 -49.9 -46.75 -52.45 -81.2 -69.65 -94.05 -30.15 -101.1 -8.5 -93.15 3.25 -86.45 13.15 -69.15 16.05 L-56.8 17.0 -48.95 16.3 Q-52.25 17.85 -55.35 20.15 -60.7 24.05 -64.7 28.15 -85.85 49.65 -69.7 69.35 -65.3 74.75 -58.05 80.0 -50.35 85.6 -43.5 88.15 -31.85 92.5 -22.6 88.15 -13.3 83.75 -6.45 70.6 -3.8 65.45 -1.7 59.15 -0.6 55.8 -0.1 52.5 0.4 55.75 1.55 59.15 3.6 65.4 6.25 70.5 12.45 82.45 20.65 87.25 L22.4 88.15 Q31.75 92.6 43.5 88.15 50.15 85.6 57.6 80.25 91.5 55.6 64.6 28.2 L62.5 26.15 Q59.2 23.1 55.2 20.15 52.15 17.95 49.0 16.4 L56.65 17.05 68.85 16.1 Q106.8 9.7 93.95 -29.75 91.15 -38.35 87.4 -44.3 73.6 -65.95 46.7 -52.5 41.55 -49.9 36.15 -46.0 31.4 -42.6 28.15 -38.3 31.25 -42.95 33.05 -48.65 35.1 -55.0 35.95 -60.6 39.2 -82.25 27.2 -91.55 Z"
         fill="none"
         stroke="#e570e8"
         stroke-linecap="butt"
         stroke-linejoin="miter-clip"
         stroke-miterlimit="12.0"
         stroke-width="3.0"
         id="path8" />
      <path
         d="M-46.05 25.85 Q-52.65 14.3 -52.65 0.05 -52.65 -21.75 -37.25 -37.15 -21.85 -52.55 -0.05 -52.55 21.75 -52.55 37.15 -37.15 L39.8 -34.35 Q44.9 -15.25 37.95 1.9 31.25 18.5 15.5 28.55 0.05 38.4 -17.1 37.6 -33.85 36.85 -46.05 25.85"
         fill="#ffff33"
         fill-rule="evenodd"
         stroke="none"
         id="path9" />
      <path
         d="M39.8 -34.35 L37.15 -37.15 Q21.75 -52.55 -0.05 -52.55 -21.85 -52.55 -37.25 -37.15 -52.65 -21.75 -52.65 0.05 -52.65 14.3 -46.05 25.85 -42.55 31.95 -37.25 37.25 -21.85 52.65 -0.05 52.65 21.75 52.65 37.15 37.25 52.55 21.85 52.55 0.05 52.55 -19.8 39.8 -34.35 M-0.05 -55.75 Q23.05 -55.75 39.4 -39.4 55.75 -23.05 55.75 0.05 55.75 23.15 39.4 39.5 23.05 55.85 -0.05 55.85 -23.15 55.85 -39.5 39.5 -55.85 23.15 -55.85 0.05 -55.85 -23.05 -39.5 -39.4 -23.15 -55.75 -0.05 -55.75"
         fill="#d7ac00"
         fill-rule="evenodd"
         stroke="none"
         id="path10" />
      <path
         d="M39.8 -34.35 Q52.55 -19.8 52.55 0.05 52.55 21.85 37.15 37.25 21.75 52.65 -0.05 52.65 -21.85 52.65 -37.25 37.25 -42.55 31.95 -46.05 25.85 -33.85 36.85 -17.1 37.6 0.05 38.4 15.5 28.55 31.25 18.5 37.95 1.9 44.9 -15.25 39.8 -34.35"
         fill="#f8e23d"
         fill-rule="evenodd"
         stroke="none"
         id="path11" />
    </g>
    <g
       id="sprite2"
       transform="matrix(1.0, 0.0, 0.0, 1.0, 9.7, 21.8)">
      <use
         ffdec:characterId="645"
         height="29.4"
         transform="matrix(1.0, 0.0, 0.0, 1.0, -9.7, -21.8)"
         width="15.4"
         xlink:href="#shape2"
         id="use11" />
    </g>
    <g
       id="shape2"
       transform="matrix(1.0, 0.0, 0.0, 1.0, 9.7, 21.8)">
      <path
         d="M3.7 -19.85 Q-3.15 -21.25 -6.85 -13.55 -7.15 -13.0 -7.7 -12.75 L-8.85 -12.85 -9.6 -13.7 -9.55 -14.85 Q-5.35 -23.35 3.95 -21.45 5.85 -21.05 5.7 -20.25 5.6 -19.45 3.7 -19.85 M0.1 -7.6 Q1.55 -7.6 2.6 -5.4 3.55 -3.15 3.55 0.0 3.55 3.15 2.6 5.35 1.55 7.6 0.1 7.6 -1.35 7.6 -2.3 5.35 -3.35 3.15 -3.35 0.0 -3.35 -3.15 -2.3 -5.4 -1.35 -7.6 0.1 -7.6"
         fill="#000000"
         fill-rule="evenodd"
         stroke="none"
         id="path12" />
    </g>
    <g
       id="sprite3"
       transform="matrix(1.0, 0.0, 0.0, 1.0, 11.35, 4.15)">
      <use
         ffdec:characterId="252"
         height="19.95"
         transform="matrix(-0.4003, 0.0, 0.0, 0.4003, 10.2587, -3.983)"
         width="51.25"
         xlink:href="#sprite4"
         id="use12" />
    </g>
    <g
       id="sprite4"
       transform="matrix(1.0, 0.0, 0.0, 1.0, 29.0, 9.95)">
      <use
         ffdec:characterId="251"
         height="19.95"
         transform="matrix(1.0, 0.0, 0.0, 1.0, -29.0, -9.95)"
         width="51.25"
         xlink:href="#shape3"
         id="use13" />
    </g>
    <g
       id="shape3"
       transform="matrix(1.0, 0.0, 0.0, 1.0, 29.0, 9.95)">
      <path
         d="M-27.5 -8.45 Q-11.65 17.15 20.75 4.1"
         fill="none"
         stroke="#000000"
         stroke-linecap="round"
         stroke-linejoin="round"
         stroke-width="3.0"
         id="path13" />
    </g>
  </defs>
</svg>
