<?xml version="1.0" encoding="UTF-8" standalone="no"?>
<svg xmlns:ffdec="https://www.free-decompiler.com/flash" xmlns:xlink="http://www.w3.org/1999/xlink" ffdec:objectType="frame" height="154.65px" width="177.9px" xmlns="http://www.w3.org/2000/svg">
  <g transform="matrix(1.0, 0.0, 0.0, 1.0, 93.35, 136.7)">
    <use ffdec:characterId="301" height="154.65" transform="matrix(-1.0, 0.0, 0.0, 1.0, 57.1, -136.7)" width="131.7" xlink:href="#shape0"/>
    <clipPath id="clipPath0" transform="matrix(-1.0, 0.0, 0.0, 1.0, -8.8, 0.0)">
      <path d="M26.75 -64.85 Q62.25 -58.35 62.3 -49.15 61.55 -39.3 -3.75 10.95 L-4.75 -38.25 -6.45 -38.3 Q-48.45 -38.9 -59.75 -44.95 -62.45 -46.5 -62.25 -48.25 -61.75 -50.85 -59.0 -56.9 -50.1 -76.9 -18.75 -133.1 48.75 -130.8 56.1 -125.35 62.05 -120.4 25.6 -67.6 L24.1 -65.35 26.75 -64.85" fill="#ff0000" fill-rule="evenodd" stroke="none"/>
    </clipPath>
    <g clip-path="url(#clipPath0)">
      <use ffdec:characterId="303" height="139.95" transform="matrix(-1.0, 0.0, 0.0, 1.0, 84.55, -122.0)" width="177.9" xlink:href="#shape2"/>
    </g>
  </g>
  <defs>
    <g id="shape0" transform="matrix(1.0, 0.0, 0.0, 1.0, 65.9, 136.7)">
      <path d="M24.1 -65.35 L26.75 -64.85 Q62.25 -58.35 62.3 -49.15 61.55 -39.3 -3.75 10.95 L-4.75 -38.25 -6.45 -38.3 -27.9 -39.05 Q-51.7 -40.6 -59.75 -44.95 -62.45 -46.5 -62.25 -48.25 -61.75 -50.85 -59.0 -56.9 L-59.0 -56.95 Q-51.25 -74.3 -26.45 -119.2 L-18.75 -133.1 Q48.75 -130.8 56.1 -125.35 62.05 -120.4 25.6 -67.6 L24.1 -65.35" fill="#fdf379" fill-rule="evenodd" stroke="none"/>
      <path d="M24.1 -65.35 L25.6 -67.6 Q62.05 -120.4 56.1 -125.35 48.75 -130.8 -18.75 -133.1 L-26.45 -119.2 Q-51.25 -74.3 -59.0 -56.95 L-59.0 -56.9 Q-61.75 -50.85 -62.25 -48.25 -62.45 -46.5 -59.75 -44.95 -51.7 -40.6 -27.9 -39.05 L-6.45 -38.3 -4.75 -38.25 -3.75 10.95 Q61.55 -39.3 62.3 -49.15 62.25 -58.35 26.75 -64.85 L24.1 -65.35 M30.05 -67.8 Q66.65 -60.65 65.8 -49.0 65.75 -37.9 -4.35 15.85 L-7.1 17.95 -8.2 -34.8 -28.1 -35.55 Q-53.05 -37.2 -61.45 -41.9 -66.8 -44.9 -65.7 -48.95 -65.15 -51.75 -62.2 -58.35 -54.45 -75.8 -29.5 -120.9 L-21.25 -135.75 -20.75 -136.7 -19.7 -136.65 Q50.7 -134.25 58.25 -128.1 66.95 -121.7 30.05 -67.8" fill="#9f9404" fill-rule="evenodd" stroke="none"/>
    </g>
    <g id="shape2" transform="matrix(1.0, 0.0, 0.0, 1.0, 93.35, 122.0)">
      <path d="M71.75 -87.0 L-66.7 -87.0 -66.7 -122.0 71.75 -122.0 71.75 -87.0" fill="#ffffff" fill-opacity="0.49803922" fill-rule="evenodd" stroke="none"/>
      <path d="M-93.35 -52.85 L84.55 -52.85 84.55 17.95 -93.35 17.95 -93.35 -52.85" fill="#00ff6c" fill-opacity="0.2" fill-rule="evenodd" stroke="none"/>
    </g>
  </defs>
</svg>
