<?xml version="1.0" encoding="UTF-8" standalone="no"?>
<svg xmlns:ffdec="https://www.free-decompiler.com/flash" xmlns:xlink="http://www.w3.org/1999/xlink" ffdec:objectType="frame" height="253.8px" width="259.15px" xmlns="http://www.w3.org/2000/svg">
  <g transform="matrix(1.0, 0.0, 0.0, 1.0, 171.9, 222.55)">
    <use ffdec:characterId="50" height="30.0" transform="matrix(-1.0, 0.0, 0.0, -0.5158, 30.1, 31.2749)" width="30.25" xlink:href="#sprite0"/>
    <use ffdec:characterId="52" height="30.0" transform="matrix(1.0, 0.0, 0.0, 0.5671, 0.0, -1.1695)" width="30.0" xlink:href="#sprite1"/>
  </g>
  <defs>
    <g id="sprite0" transform="matrix(1.0, 0.0, 0.0, 1.0, 12.35, 30.1)">
      <use ffdec:characterId="49" height="30.0" transform="matrix(1.0, 0.0, 0.0, 1.0, -12.35, -30.1)" width="30.25" xlink:href="#shape0"/>
    </g>
    <g id="shape0" transform="matrix(1.0, 0.0, 0.0, 1.0, 12.35, 30.1)">
      <path d="M10.15 -30.1 L10.2 -30.0 13.9 -0.1 6.4 -0.1 -1.1 -0.1 -8.6 -0.1 -12.35 -0.1 -12.35 -30.1 -12.3 -30.0 -8.6 -0.1 -4.85 -30.0 -4.85 -30.1 -4.8 -30.0 -1.1 -0.1 2.65 -30.0 2.65 -30.1 2.7 -30.0 6.4 -0.1 10.15 -30.0 10.15 -30.1 M14.15 -0.1 L17.9 -30.0 17.9 -0.1 14.15 -0.1" fill="#000000" fill-rule="evenodd" stroke="none"/>
    </g>
    <g id="sprite1" transform="matrix(1.0, 0.0, 0.0, 1.0, 15.0, 30.1)">
      <use ffdec:characterId="51" height="30.0" transform="matrix(1.0, 0.0, 0.0, 1.0, -15.0, -30.1)" width="30.0" xlink:href="#shape1"/>
    </g>
    <g id="shape1" transform="matrix(1.0, 0.0, 0.0, 1.0, 15.0, 30.1)">
      <path d="M3.75 -30.1 L3.8 -30.0 7.5 -0.1 11.25 -30.0 11.25 -30.1 11.3 -30.0 15.0 -0.1 7.5 -0.1 0.0 -0.1 -7.5 -0.1 -15.0 -0.1 -11.25 -30.0 -11.25 -30.1 -11.2 -30.0 -7.5 -0.1 -3.75 -30.0 -3.75 -30.1 -3.7 -30.0 0.0 -0.1 3.75 -30.0 3.75 -30.1" fill="#000000" fill-rule="evenodd" stroke="none"/>
    </g>
  </defs>
</svg>
