<?xml version="1.0" encoding="UTF-8" standalone="no"?>
<svg xmlns:ffdec="https://www.free-decompiler.com/flash" xmlns:xlink="http://www.w3.org/1999/xlink" ffdec:objectType="frame" height="253.8px" width="259.65px" xmlns="http://www.w3.org/2000/svg">
  <g transform="matrix(1.0, 0.0, 0.0, 1.0, 171.9, 222.55)">
    <use ffdec:characterId="40" height="30.0" transform="matrix(1.0, 0.0, 0.0, 1.0, 0.0, 0.0)" width="30.0" xlink:href="#shape0"/>
  </g>
  <defs>
    <g id="shape0" transform="matrix(1.0, 0.0, 0.0, 1.0, 0.0, 0.0)">
      <path d="M0.0 1.95 L0.0 0.0 30.0 0.0 30.0 1.95 23.9 1.95 23.9 4.95 30.0 4.95 30.0 6.95 28.9 6.95 28.9 9.95 30.0 9.95 30.0 11.95 23.9 11.95 23.9 14.95 30.0 14.95 30.0 16.95 28.9 16.95 28.9 19.95 30.0 19.95 30.0 21.95 23.9 21.95 23.9 24.95 30.0 24.95 30.0 26.95 28.9 26.95 28.9 29.95 30.0 29.95 30.0 30.0 0.0 30.0 0.0 29.95 1.95 29.95 2.0 29.9 2.0 29.95 6.95 29.95 6.95 26.95 0.0 26.95 0.0 24.95 1.95 24.95 1.95 21.95 0.0 21.95 0.0 19.95 6.95 19.95 6.95 16.95 2.0 16.95 2.0 17.0 1.95 16.95 0.0 16.95 0.0 14.95 1.95 14.95 1.95 11.95 0.0 11.95 0.0 9.95 6.95 9.95 6.95 6.95 2.0 6.95 2.0 7.0 1.95 6.95 0.0 6.95 0.0 4.95 1.95 4.95 1.95 1.95 0.0 1.95 M21.95 4.95 L21.95 1.95 13.9 1.95 13.9 4.95 21.95 4.95 M26.95 9.95 L26.95 6.95 18.9 6.95 18.9 9.95 26.95 9.95 M16.95 9.95 L16.95 6.95 8.95 6.95 8.95 9.95 16.95 9.95 M11.95 4.95 L11.95 1.95 3.95 1.95 3.95 4.95 11.95 4.95 M21.95 14.95 L21.95 11.95 13.9 11.95 13.9 14.95 21.95 14.95 M26.95 19.95 L26.95 16.95 18.9 16.95 18.9 19.95 26.95 19.95 M18.9 26.95 L18.9 29.95 26.95 29.95 26.95 26.95 18.9 26.95 M16.95 29.95 L16.95 26.95 8.95 26.95 8.95 29.95 16.95 29.95 M3.95 14.95 L11.95 14.95 11.95 11.95 3.95 11.95 3.95 14.95 M11.95 21.95 L3.95 21.95 3.95 24.95 11.95 24.95 11.95 21.95 M8.95 16.95 L8.95 19.95 16.95 19.95 16.95 16.95 8.95 16.95 M21.95 21.95 L13.9 21.95 13.9 24.95 21.95 24.95 21.95 21.95" fill="#0066cc" fill-rule="evenodd" stroke="none"/>
      <path d="M30.0 30.0 L0.0 30.0 30.0 30.0" fill="#ebd554" fill-rule="evenodd" stroke="none"/>
      <path d="M30.0 1.95 L30.0 4.95 23.9 4.95 23.9 1.95 30.0 1.95 M30.0 6.95 L30.0 9.95 28.9 9.95 28.9 6.95 30.0 6.95 M30.0 11.95 L30.0 14.95 23.9 14.95 23.9 11.95 30.0 11.95 M30.0 16.95 L30.0 19.95 28.9 19.95 28.9 16.95 30.0 16.95 M30.0 21.95 L30.0 24.95 23.9 24.95 23.9 21.95 30.0 21.95 M30.0 26.95 L30.0 29.95 28.9 29.95 28.9 26.95 30.0 26.95 M0.0 29.95 L0.0 26.95 6.95 26.95 6.95 29.95 2.0 29.95 2.0 29.9 1.95 29.95 0.0 29.95 M0.0 24.95 L0.0 21.95 1.95 21.95 1.95 24.95 0.0 24.95 M0.0 19.95 L0.0 16.95 1.95 16.95 2.0 17.0 2.0 16.95 6.95 16.95 6.95 19.95 0.0 19.95 M0.0 14.95 L0.0 11.95 1.95 11.95 1.95 14.95 0.0 14.95 M0.0 9.95 L0.0 6.95 1.95 6.95 2.0 7.0 2.0 6.95 6.95 6.95 6.95 9.95 0.0 9.95 M0.0 4.95 L0.0 1.95 1.95 1.95 1.95 4.95 0.0 4.95 M21.95 4.95 L13.9 4.95 13.9 1.95 21.95 1.95 21.95 4.95 M26.95 9.95 L18.9 9.95 18.9 6.95 26.95 6.95 26.95 9.95 M26.95 19.95 L18.9 19.95 18.9 16.95 26.95 16.95 26.95 19.95 M21.95 14.95 L13.9 14.95 13.9 11.95 21.95 11.95 21.95 14.95 M11.95 4.95 L3.95 4.95 3.95 1.95 11.95 1.95 11.95 4.95 M16.95 9.95 L8.95 9.95 8.95 6.95 16.95 6.95 16.95 9.95 M8.95 16.95 L16.95 16.95 16.95 19.95 8.95 19.95 8.95 16.95 M11.95 21.95 L11.95 24.95 3.95 24.95 3.95 21.95 11.95 21.95 M3.95 14.95 L3.95 11.95 11.95 11.95 11.95 14.95 3.95 14.95 M16.95 29.95 L8.95 29.95 8.95 26.95 16.95 26.95 16.95 29.95 M18.9 26.95 L26.95 26.95 26.95 29.95 18.9 29.95 18.9 26.95 M21.95 21.95 L21.95 24.95 13.9 24.95 13.9 21.95 21.95 21.95" fill="#0099cc" fill-rule="evenodd" stroke="none"/>
    </g>
  </defs>
</svg>
