<?xml version="1.0" encoding="UTF-8" standalone="no"?>
<svg xmlns:ffdec="https://www.free-decompiler.com/flash" xmlns:xlink="http://www.w3.org/1999/xlink" ffdec:objectType="frame" height="253.8px" width="259.65px" xmlns="http://www.w3.org/2000/svg">
  <g transform="matrix(1.0, 0.0, 0.0, 1.0, 171.9, 222.55)">
    <use ffdec:characterId="41" height="30.0" transform="matrix(1.0, 0.0, 0.0, 1.0, 0.0, 0.0)" width="30.0" xlink:href="#shape0"/>
  </g>
  <defs>
    <g id="shape0" transform="matrix(1.0, 0.0, 0.0, 1.0, 0.0, 0.0)">
      <path d="M26.05 1.95 L26.05 4.95 18.05 4.95 18.05 1.95 26.05 1.95 M30.0 1.95 L30.0 4.95 28.05 4.95 28.05 1.95 30.0 1.95 M30.0 6.95 L30.0 9.95 23.05 9.95 23.05 6.95 28.0 6.95 28.0 7.0 28.05 6.95 30.0 6.95 M30.0 11.95 L30.0 14.95 28.05 14.95 28.05 11.95 30.0 11.95 M30.0 16.95 L30.0 19.95 23.05 19.95 23.05 16.95 28.0 16.95 28.0 17.0 28.05 16.95 30.0 16.95 M30.0 21.95 L30.0 24.95 28.05 24.95 28.05 21.95 30.0 21.95 M30.0 26.95 L30.0 29.95 28.05 29.95 28.0 29.9 28.0 29.95 23.05 29.95 23.05 26.95 30.0 26.95 M0.0 29.95 L0.0 26.95 1.1 26.95 1.1 29.95 0.0 29.95 M0.0 24.95 L0.0 21.95 6.1 21.95 6.1 24.95 0.0 24.95 M0.0 19.95 L0.0 16.95 1.1 16.95 1.1 19.95 0.0 19.95 M0.0 14.95 L0.0 11.95 6.1 11.95 6.1 14.95 0.0 14.95 M0.0 9.95 L0.0 6.95 1.1 6.95 1.1 9.95 0.0 9.95 M0.0 4.95 L0.0 1.95 6.1 1.95 6.1 4.95 0.0 4.95 M21.05 6.95 L21.05 9.95 13.05 9.95 13.05 6.95 21.05 6.95 M16.1 1.95 L16.1 4.95 8.05 4.95 8.05 1.95 16.1 1.95 M11.1 6.95 L11.1 9.95 3.05 9.95 3.05 6.95 11.1 6.95 M26.05 11.95 L26.05 14.95 18.05 14.95 18.05 11.95 26.05 11.95 M21.05 16.95 L21.05 19.95 13.05 19.95 13.05 16.95 21.05 16.95 M13.05 29.95 L13.05 26.95 21.05 26.95 21.05 29.95 13.05 29.95 M11.1 26.95 L11.1 29.95 3.05 29.95 3.05 26.95 11.1 26.95 M8.05 21.95 L16.1 21.95 16.1 24.95 8.05 24.95 8.05 21.95 M16.1 14.95 L8.05 14.95 8.05 11.95 16.1 11.95 16.1 14.95 M3.05 19.95 L3.05 16.95 11.1 16.95 11.1 19.95 3.05 19.95 M18.05 24.95 L18.05 21.95 26.05 21.95 26.05 24.95 18.05 24.95" fill="#003399" fill-rule="evenodd" stroke="none"/>
      <path d="M26.05 1.95 L18.05 1.95 18.05 4.95 26.05 4.95 26.05 1.95 M30.0 1.95 L28.05 1.95 28.05 4.95 30.0 4.95 30.0 6.95 28.05 6.95 28.0 7.0 28.0 6.95 23.05 6.95 23.05 9.95 30.0 9.95 30.0 11.95 28.05 11.95 28.05 14.95 30.0 14.95 30.0 16.95 28.05 16.95 28.0 17.0 28.0 16.95 23.05 16.95 23.05 19.95 30.0 19.95 30.0 21.95 28.05 21.95 28.05 24.95 30.0 24.95 30.0 26.95 23.05 26.95 23.05 29.95 28.0 29.95 28.0 29.9 28.05 29.95 30.0 29.95 30.0 30.0 0.0 30.0 0.0 29.95 1.1 29.95 1.1 26.95 0.0 26.95 0.0 24.95 6.1 24.95 6.1 21.95 0.0 21.95 0.0 19.95 1.1 19.95 1.1 16.95 0.0 16.95 0.0 14.95 6.1 14.95 6.1 11.95 0.0 11.95 0.0 9.95 1.1 9.95 1.1 6.95 0.0 6.95 0.0 4.95 6.1 4.95 6.1 1.95 0.0 1.95 0.0 0.0 30.0 0.0 30.0 1.95 M21.05 6.95 L13.05 6.95 13.05 9.95 21.05 9.95 21.05 6.95 M21.05 16.95 L13.05 16.95 13.05 19.95 21.05 19.95 21.05 16.95 M26.05 11.95 L18.05 11.95 18.05 14.95 26.05 14.95 26.05 11.95 M11.1 6.95 L3.05 6.95 3.05 9.95 11.1 9.95 11.1 6.95 M16.1 1.95 L8.05 1.95 8.05 4.95 16.1 4.95 16.1 1.95 M3.05 19.95 L11.1 19.95 11.1 16.95 3.05 16.95 3.05 19.95 M16.1 14.95 L16.1 11.95 8.05 11.95 8.05 14.95 16.1 14.95 M8.05 21.95 L8.05 24.95 16.1 24.95 16.1 21.95 8.05 21.95 M11.1 26.95 L3.05 26.95 3.05 29.95 11.1 29.95 11.1 26.95 M13.05 29.95 L21.05 29.95 21.05 26.95 13.05 26.95 13.05 29.95 M18.05 24.95 L26.05 24.95 26.05 21.95 18.05 21.95 18.05 24.95" fill="#000066" fill-rule="evenodd" stroke="none"/>
    </g>
  </defs>
</svg>
