<?xml version="1.0" encoding="UTF-8" standalone="no"?>
<svg xmlns:ffdec="https://www.free-decompiler.com/flash" xmlns:xlink="http://www.w3.org/1999/xlink" ffdec:objectType="frame" height="214.0px" width="164.6px" xmlns="http://www.w3.org/2000/svg">
  <g transform="matrix(1.0, 0.0, 0.0, 1.0, 45.3, 97.0)">
    <use ffdec:characterId="46" height="97.6" transform="matrix(0.9989, 0.0443, -0.0443, 0.9989, -30.6431, -1.363)" width="49.15" xlink:href="#sprite0"/>
    <use ffdec:characterId="47" height="214.0" transform="matrix(1.0, 0.0, 0.0, 1.0, -45.3, -97.0)" width="164.6" xlink:href="#shape2"/>
  </g>
  <defs>
    <g id="sprite0" transform="matrix(1.0, 0.0, 0.0, 1.0, 30.75, 0.5)">
      <use ffdec:characterId="43" height="39.5" transform="matrix(0.5, 0.866, -0.866, 0.5, 3.4388, 51.4789)" width="29.9" xlink:href="#sprite1"/>
      <use ffdec:characterId="45" height="65.75" transform="matrix(1.0, 0.0, 0.0, 1.0, -12.25, -0.5)" width="7.75" xlink:href="#sprite2"/>
    </g>
    <g id="sprite1" transform="matrix(1.0, 0.0, 0.0, 1.0, 14.95, 39.45)">
      <use ffdec:characterId="42" height="39.5" transform="matrix(1.0, 0.0, 0.0, 1.0, -14.95, -39.45)" width="29.9" xlink:href="#shape0"/>
    </g>
    <g id="shape0" transform="matrix(1.0, 0.0, 0.0, 1.0, 14.95, 39.45)">
      <path d="M-7.3 -10.95 L-7.1 -10.95 -7.1 -6.65 14.95 -6.65 14.95 0.05 -14.95 0.05 -14.95 -39.45 -7.3 -39.45 -7.3 -10.95" fill="#181818" fill-rule="evenodd" stroke="none"/>
    </g>
    <g id="sprite2" transform="matrix(1.0, 0.0, 0.0, 1.0, 3.9, 0.5)">
      <use ffdec:characterId="44" height="65.75" transform="matrix(1.0, 0.0, 0.0, 1.0, -3.9, -0.5)" width="7.75" xlink:href="#shape1"/>
    </g>
    <g id="shape1" transform="matrix(1.0, 0.0, 0.0, 1.0, 3.9, 0.5)">
      <path d="M-3.4 0.0 Q-0.65 30.15 -0.65 33.5 L1.1 57.55" fill="none" stroke="#181818" stroke-linecap="round" stroke-linejoin="round" stroke-width="1.0"/>
      <path d="M1.1 57.55 Q2.25 57.85 2.65 59.5 L3.35 62.25 3.35 64.75 1.85 64.75 1.1 64.45 Q0.65 64.2 0.35 63.5" fill="none" stroke="#181818" stroke-linecap="round" stroke-linejoin="round" stroke-width="1.0"/>
    </g>
    <g id="shape2" transform="matrix(1.0, 0.0, 0.0, 1.0, 45.3, 97.0)">
      <path d="M76.95 -84.5 L77.45 -84.75 80.2 -81.65 83.7 -79.4 80.95 -76.25 85.3 -76.65 90.95 -78.5 92.95 -76.4 88.95 -71.75 92.05 -70.65 87.7 -69.5 83.3 -65.9 88.05 -64.25 91.2 -64.9 93.2 -61.25 89.55 -56.65 87.7 -58.15 85.05 -58.15 84.3 -55.15 86.95 -52.65 86.2 -51.0 86.2 -49.25 88.2 -49.25 90.1 -48.1 87.05 -45.9 87.55 -43.15 91.3 -42.75 93.95 -43.9 96.45 -43.9 99.3 -42.75 102.05 -44.65 105.2 -44.65 109.95 -43.15 110.95 -40.75 108.95 -40.15 106.3 -37.9 109.2 -34.75 110.05 -33.15 105.7 -31.9 105.7 -29.5 107.7 -29.5 109.2 -26.25 104.55 -19.65 100.95 -19.25 97.8 -20.9 95.8 -20.9 91.55 -17.9 85.55 -21.0 80.95 -17.5 82.05 -15.65 84.95 -17.4 88.3 -17.4 90.95 -14.65 94.3 -16.9 97.7 -17.5 97.7 -14.65 98.2 -14.25 100.7 -15.0 102.7 -13.25 104.3 -14.15 107.45 -11.65 110.55 -12.25 112.7 -10.5 112.7 -7.15 116.3 -8.4 117.3 -5.65 113.55 -2.5 106.2 -1.9 102.8 0.85 99.55 -0.75 96.45 -0.15 96.45 5.75 98.2 5.75 100.2 2.75 101.3 4.1 105.7 2.85 109.3 1.1 109.3 4.5 110.8 8.5 106.3 10.6 110.05 10.6 112.95 12.6 115.2 11.1 119.3 15.85 114.05 18.5 111.45 22.5 106.55 24.85 106.55 29.75 103.45 29.25 102.55 32.85 98.7 28.1 96.05 28.6 93.95 26.25 91.05 29.0 93.55 31.85 95.8 33.6 95.8 37.35 91.3 40.1 90.7 40.1 92.3 42.6 97.8 40.85 99.2 43.1 96.3 47.0 94.45 45.35 91.7 47.0 83.95 47.0 78.95 44.75 74.05 49.1 56.55 49.1 53.05 50.85 51.95 70.0 Q50.5 95.3 54.05 117.0 L42.45 117.0 Q46.1 84.3 42.55 49.75 L41.3 45.0 36.8 33.1 34.2 34.25 33.3 37.75 31.3 37.75 29.8 36.35 27.8 37.0 28.3 38.85 31.2 40.35 31.2 43.1 26.8 45.35 23.3 42.75 19.7 42.75 18.2 39.35 16.45 42.5 9.45 45.35 10.45 41.35 7.8 42.0 8.95 39.1 5.8 39.5 3.55 34.95 9.95 32.5 9.55 28.25 15.45 28.25 15.45 25.6 19.3 24.1 18.55 21.1 15.2 19.6 14.3 17.25 10.2 17.25 12.05 19.35 8.05 19.35 5.45 23.25 1.7 17.5 -2.45 15.5 0.8 13.6 1.3 13.55 0.8 10.25 -3.8 6.6 -6.05 7.25 -3.05 11.1 -7.45 12.85 -5.7 16.0 -10.8 19.75 -15.55 18.5 -20.75 19.6 -18.95 17.1 -21.8 12.85 -19.7 11.6 -18.95 13.75 -16.2 12.75 -18.2 6.5 -13.8 6.5 -11.05 3.0 -12.45 0.6 -16.95 1.35 -21.55 6.75 -36.95 10.6 -39.2 7.75 -35.05 4.0 -36.95 1.35 -38.2 2.85 -39.65 1.3 -42.55 0.85 -45.3 -1.4 -45.3 -4.9 -42.3 -7.4 -39.7 -4.65 -37.3 -4.65 -40.7 -8.15 -39.95 -11.9 -36.95 -14.0 -38.7 -16.0 -35.8 -19.5 -32.3 -19.5 -28.45 -17.0 -24.95 -21.5 -27.05 -22.0 -30.95 -24.25 -28.7 -30.25 -24.45 -33.65 -12.95 -31.0 -9.05 -33.5 -9.7 -36.65 -13.95 -34.25 -16.55 -35.5 -20.3 -40.5 -25.8 -41.9 -21.7 -44.4 -22.8 -46.65 -26.8 -45.9 -28.8 -47.9 -26.05 -51.65 -29.95 -53.65 -26.55 -56.15 -24.7 -59.5 -19.95 -60.0 -17.95 -56.9 -14.3 -56.25 -14.3 -59.65 -17.55 -61.1 -16.05 -64.4 -16.05 -68.4 -12.2 -68.4 -8.3 -71.9 -5.95 -66.25 5.05 -64.75 3.95 -58.5 7.45 -57.25 6.3 -60.25 6.3 -64.65 10.8 -64.65 11.7 -67.4 17.55 -67.4 15.7 -69.65 17.95 -70.75 17.95 -75.5 14.7 -75.5 9.2 -78.15 6.3 -76.9 6.95 -87.9 12.7 -89.15 17.95 -92.9 20.3 -89.5 26.95 -90.4 25.7 -95.65 32.3 -95.65 34.15 -97.0 35.05 -95.75 38.05 -95.75 36.8 -93.25 39.8 -89.0 42.45 -93.75 46.7 -91.5 48.7 -93.4 51.3 -87.5 45.8 -82.9 49.3 -82.9 52.05 -77.65 46.45 -77.65 47.8 -75.9 47.05 -73.4 47.05 -72.9 53.3 -72.9 55.2 -70.9 60.2 -70.25 61.7 -72.4 60.55 -75.15 68.2 -84.5 76.95 -84.5 M57.55 -60.75 L61.3 -59.5 59.05 -62.5 57.55 -60.75 M8.05 -7.0 L11.8 -7.4 10.45 -9.9 6.7 -10.15 8.05 -7.0 M31.95 -16.9 L29.35 -15.9 33.95 -12.5 31.95 -16.9 M51.85 36.15 L52.45 43.6 55.2 44.0 54.8 38.5 51.85 36.15 M40.55 28.35 L43.95 41.6 44.2 26.85 40.55 28.35 M77.8 42.75 L73.25 37.35 75.55 43.5 77.8 42.75 M69.55 34.85 L73.2 32.0 69.55 31.25 69.55 34.85 M20.8 1.0 L16.3 1.0 14.2 4.75 17.95 6.0 17.55 8.6 14.55 11.25 17.8 14.25 20.55 7.35 24.3 4.6 20.8 1.0" fill="#181818" fill-rule="evenodd" stroke="none"/>
    </g>
  </defs>
</svg>
